<svg id="733ea4fe-550e-434f-ae6f-4a74ee2ea5ce" data-name="Layer 1" xmlns="http://www.w3.org/2000/svg" xmlns:xlink="http://www.w3.org/1999/xlink" width="71.86" height="71.86" viewBox="0 0 71.86 71.86">
  <defs>
    <clipPath id="cae49ec8-36e3-4bff-8258-caa1f3f10e84">
      <rect id="44ceadcb-3e88-4a07-8856-3108b5f28ac3" data-name="SVGID" width="71.86" height="71.86" style="fill: none"/>
    </clipPath>
  </defs>
  <title>bg_nav</title>
  <g style="clip-path: url(#cae49ec8-36e3-4bff-8258-caa1f3f10e84)">
    <g>
      <rect x="20.54" y="36.08" width="14.52" height="6.05" transform="translate(-19.51 31.12) rotate(-45)" style="fill: #363c3f"/>
      <rect x="15.04" y="30.58" width="14.52" height="6.05" transform="translate(-17.23 25.61) rotate(-45)" style="fill: #363c3f"/>
      <polygon points="-1.85 73.03 5.68 65.5 13.6 57.58 23.77 47.41 19.49 43.13 9.32 53.29 1.4 61.22 -6.13 68.75 -1.85 73.03" style="fill: #363c3f"/>
      <rect x="-14.46" y="11.7" width="23.32" height="6.05" transform="translate(-11.23 2.33) rotate(-45)" style="fill: #363c3f"/>
      <polygon points="-7.35 67.54 10.35 49.84 11.33 48.86 18.27 41.91 13.99 37.63 7.05 44.58 6.07 45.56 -11.63 63.26 -7.35 67.54" style="fill: #363c3f"/>
      <rect x="-18.24" y="49.01" width="22.22" height="6.05" transform="translate(-38.88 10.2) rotate(-45)" style="fill: #363c3f"/>
      <polygon points="18.57 19.61 18.57 19.61 18.57 19.61 14.29 15.32 -5.6 35.22 -5.6 35.22 -22.63 52.25 -18.35 56.53 18.57 19.61" style="fill: #363c3f"/>
      <rect x="-2.08" y="29.89" width="28.14" height="6.05" transform="translate(-19.76 18.12) rotate(-45)" style="fill: #363c3f"/>
      <rect x="-33.64" y="27.4" width="52.22" height="6.05" transform="translate(-23.72 3.59) rotate(-45)" style="fill: #363c3f"/>
      <rect x="-44.65" y="16.39" width="52.22" height="6.05" transform="translate(-19.16 -7.42) rotate(-45)" style="fill: #363c3f"/>
      <rect x="-1.17" y="-8.24" width="14.52" height="6.05" transform="translate(5.47 2.78) rotate(-45)" style="fill: #363c3f"/>
      <polygon points="25.1 24.07 32.63 16.53 40.55 8.61 50.72 -1.56 46.44 -5.84 36.27 4.33 28.35 12.25 20.82 19.79 25.1 24.07" style="fill: #363c3f"/>
      <rect x="68.62" y="60.19" width="23.32" height="6.05" transform="translate(-21.19 75.29) rotate(-45)" style="fill: #363c3f"/>
      <rect x="8.71" y="0.05" width="22.22" height="6.05" transform="translate(3.63 14.91) rotate(-45)" style="fill: #363c3f"/>
      <polygon points="45.53 -29.36 45.53 -29.36 45.53 -29.36 41.24 -33.64 21.35 -13.74 21.35 -13.74 4.32 3.29 8.6 7.57 45.53 -29.36" style="fill: #363c3f"/>
      <rect x="9.82" y="-5.06" width="52.22" height="6.05" transform="translate(11.96 24.81) rotate(-45)" style="fill: #363c3f"/>
      <rect x="20.81" y="5.93" width="52.22" height="6.05" transform="translate(7.41 35.8) rotate(-45)" style="fill: #363c3f"/>
      <rect x="42.83" y="35.77" width="14.52" height="6.05" transform="translate(-12.76 46.78) rotate(-45)" style="fill: #363c3f"/>
      <rect x="48.34" y="41.27" width="14.52" height="6.05" transform="translate(-15.04 52.29) rotate(-45)" style="fill: #363c3f"/>
      <polygon points="60.54 21.63 56.26 17.34 48.33 25.27 37.32 36.28 41.6 40.56 52.62 29.55 60.54 21.63" style="fill: #363c3f"/>
      <polygon points="79.75 4.87 72.22 12.4 64.3 20.33 54.13 30.49 58.41 34.77 68.58 24.61 76.5 16.68 84.03 9.15 79.75 4.87" style="fill: #363c3f"/>
      <rect x="56.5" y="6.74" width="23.32" height="6.05" transform="translate(13.06 51.05) rotate(-45)" style="fill: #363c3f"/>
      <polygon points="85.25 10.37 67.55 28.06 66.57 29.05 59.63 35.99 63.91 40.27 70.85 33.33 71.83 32.34 89.53 14.64 85.25 10.37" style="fill: #363c3f"/>
      <polygon points="59.33 58.29 59.33 58.3 59.33 58.3 63.61 62.58 83.5 42.68 83.5 42.68 100.53 25.65 96.25 21.37 59.33 58.29" style="fill: #363c3f"/>
      <rect x="51.85" y="41.96" width="28.14" height="6.05" transform="translate(-12.5 59.78) rotate(-45)" style="fill: #363c3f"/>
      <rect x="59.32" y="44.45" width="52.22" height="6.05" transform="translate(-8.55 74.32) rotate(-45)" style="fill: #363c3f"/>
      <rect x="26.31" y="11.43" width="52.22" height="6.05" transform="translate(5.13 41.3) rotate(-45)" style="fill: #363c3f"/>
      <rect x="47.62" y="63.62" width="14.52" height="6.05" transform="translate(-31.05 58.33) rotate(-45)" style="fill: #363c3f"/>
      <rect x="42.12" y="58.12" width="14.52" height="6.05" transform="translate(-28.77 52.83) rotate(-45)" style="fill: #363c3f"/>
      <polygon points="25.23 100.57 32.76 93.03 40.68 85.11 50.85 74.95 46.57 70.67 36.4 80.83 28.48 88.75 20.95 96.29 25.23 100.57" style="fill: #363c3f"/>
      <rect x="51.12" y="77.73" width="23.32" height="6.05" transform="translate(-38.72 68.05) rotate(-45)" style="fill: #363c3f"/>
      <polygon points="31.02 83.78 40.92 73.88 41.47 73.33 45.35 69.45 41.07 65.17 37.19 69.06 36.64 69.6 26.74 79.5 31.02 83.78" style="fill: #363c3f"/>
      <rect x="24.54" y="49.83" width="22.22" height="6.05" transform="translate(-26.93 40.69) rotate(-45)" style="fill: #363c3f"/>
      <polygon points="9.95 85.29 9.95 85.29 9.95 85.29 14.23 89.57 34.13 69.68 34.13 69.68 51.15 52.65 46.87 48.37 9.95 85.29" style="fill: #363c3f"/>
      <rect x="2.47" y="68.95" width="28.14" height="6.05" transform="translate(-46.06 32.77) rotate(-45)" style="fill: #363c3f"/>
      <rect x="-6.56" y="54.94" width="52.22" height="6.05" transform="translate(-35.26 30.8) rotate(-45)" style="fill: #363c3f"/>
      <rect x="20.93" y="82.43" width="52.22" height="6.05" transform="translate(-46.65 58.29) rotate(-45)" style="fill: #363c3f"/>
    </g>
  </g>
</svg>
