<svg id="66880d70-f03e-49b4-ab90-75b1d9f1cb70" data-name="Layer 1" xmlns="http://www.w3.org/2000/svg" width="41.11" height="41.83" viewBox="0 0 41.11 41.83">
  <title>nyscapes.rnd.to-dev</title>
  <g>
    <rect x="36.42" y="24.78" width="4.64" height="4.64" style="fill: #f9cc73"/>
    <rect x="30.37" y="24.81" width="4.59" height="4.59" style="fill: #f9cc73"/>
    <rect x="24.3" y="24.81" width="4.59" height="4.59" style="fill: #f7d8a1"/>
    <rect x="18.21" y="24.78" width="4.64" height="4.64" style="fill: #f7d8a1"/>
    <rect x="12.16" y="24.81" width="4.59" height="4.59" style="fill: #f9cc73"/>
    <rect x="6.07" y="24.78" width="4.64" height="4.64" style="fill: #f9cc73"/>
    <rect y="24.78" width="4.64" height="4.64" style="fill: #f7d8a1"/>
    <rect x="36.42" y="30.99" width="4.64" height="4.64" style="fill: #f9cc73"/>
    <rect x="30.37" y="31.01" width="4.59" height="4.59" style="fill: #f7d8a1"/>
    <rect x="24.3" y="31.01" width="4.59" height="4.59" style="fill: #f9cc73"/>
    <rect x="18.21" y="30.99" width="4.64" height="4.64" style="fill: #f9cc73"/>
    <rect x="12.16" y="31.01" width="4.59" height="4.59" style="fill: #f7d8a1"/>
    <rect x="6.07" y="30.99" width="4.64" height="4.64" style="fill: #f9cc73"/>
    <rect y="30.99" width="4.64" height="4.64" style="fill: #f9cc73"/>
    <rect x="36.42" y="37.2" width="4.64" height="4.64" style="fill: #f9cc73"/>
    <rect x="30.37" y="37.22" width="4.59" height="4.59" style="fill: #f9cc73"/>
    <rect x="24.3" y="37.22" width="4.59" height="4.59" style="fill: #f9d391"/>
    <rect x="18.21" y="37.2" width="4.64" height="4.64" style="fill: #f9d391"/>
    <rect x="12.16" y="37.22" width="4.59" height="4.59" style="fill: #f9cc73"/>
    <rect x="6.07" y="37.2" width="4.64" height="4.64" style="fill: #f9cc73"/>
    <rect y="37.2" width="4.64" height="4.64" style="fill: #f9cc73"/>
    <rect x="36.42" y="18.6" width="4.64" height="4.64" style="fill: #f9cc73"/>
    <rect x="30.37" y="18.63" width="4.59" height="4.59" style="fill: #f9cc73"/>
    <rect x="24.3" y="18.63" width="4.59" height="4.59" style="fill: #f7d8a1"/>
    <rect x="18.21" y="18.6" width="4.64" height="4.64" style="fill: #f9cc73"/>
    <rect x="12.16" y="18.63" width="4.59" height="4.59" style="fill: #f9cc73"/>
    <rect x="6.07" y="18.6" width="4.64" height="4.64" style="fill: #f7d8a1"/>
    <rect y="18.6" width="4.64" height="4.64" style="fill: #f7d8a1"/>
    <rect x="36.42" y="12.39" width="4.64" height="4.64" style="fill: #f7d8a1"/>
    <rect x="30.37" y="12.41" width="4.59" height="4.59" style="fill: #f9cc73"/>
    <rect x="24.3" y="12.41" width="4.59" height="4.59" style="fill: #f9cc73"/>
    <rect x="18.21" y="12.39" width="4.64" height="4.64" style="fill: #f9cc73"/>
    <rect x="12.16" y="12.41" width="4.59" height="4.59" style="fill: #f7d8a1"/>
    <rect x="6.07" y="12.39" width="4.64" height="4.64" style="fill: #f7d8a1"/>
    <rect y="12.39" width="4.64" height="4.64" style="fill: #f4ce89"/>
    <rect x="36.42" y="6.21" width="4.64" height="4.64" style="fill: #f9cc73"/>
    <rect x="30.37" y="6.24" width="4.59" height="4.59" style="fill: #f7d8a1"/>
    <rect x="24.3" y="6.24" width="4.59" height="4.59" style="fill: #f7d8a1"/>
    <rect x="18.21" y="6.21" width="4.64" height="4.64" style="fill: #f7d8a1"/>
    <rect x="12.16" y="6.24" width="4.59" height="4.59" style="fill: #f9cc73"/>
    <rect x="6.07" y="6.21" width="4.64" height="4.64" style="fill: #f4ce89"/>
    <rect y="6.21" width="4.64" height="4.64" style="fill: #f4ce89"/>
    <rect x="36.48" width="4.64" height="4.64" style="fill: #f9cc73"/>
    <rect x="30.43" y="0.02" width="4.59" height="4.59" style="fill: #f9cc73"/>
    <rect x="24.36" y="0.02" width="4.59" height="4.59" style="fill: #f9cc73"/>
    <rect x="18.26" width="4.64" height="4.64" style="fill: #f7d8a1"/>
    <rect x="12.22" y="0.02" width="4.59" height="4.59" style="fill: #f7d8a1"/>
    <rect x="6.12" width="4.64" height="4.64" style="fill: #f9cc73"/>
    <rect x="0.05" width="4.64" height="4.64" style="fill: #f9cc73"/>
  </g>
</svg>
